<mxfile host="app.diagrams.net" modified="2023-09-02T04:37:36.311Z" agent="Mozilla/5.0 (Macintosh; Intel Mac OS X 10_15_7) AppleWebKit/537.36 (KHTML, like Gecko) Chrome/116.0.0.0 Safari/537.36 Edg/116.0.1938.62" etag="KswubeRVF7X7srxJKVQm" version="21.7.2" type="device">
  <diagram name="第 1 页" id="JeNht9RzvsZkrvguMMoi">
    <mxGraphModel dx="954" dy="648" grid="1" gridSize="10" guides="1" tooltips="1" connect="1" arrows="1" fold="1" page="1" pageScale="1" pageWidth="827" pageHeight="1169" math="0" shadow="0">
      <root>
        <mxCell id="0" />
        <mxCell id="1" parent="0" />
        <mxCell id="uSk_atrdt99H92I5iiGg-1" value="Router" style="rounded=0;whiteSpace=wrap;html=1;fillColor=#FFE6CC;" diagramCategory="general" diagramName="Rectangle" vertex="1" parent="1">
          <mxGeometry x="325" y="210" width="120" height="40" as="geometry" />
        </mxCell>
        <mxCell id="uSk_atrdt99H92I5iiGg-2" value="StoreFsm" style="rounded=0;whiteSpace=wrap;html=1;fillColor=#FFB366;" diagramCategory="general" diagramName="Rectangle" vertex="1" parent="1">
          <mxGeometry x="325" y="250" width="120" height="40" as="geometry" />
        </mxCell>
        <mxCell id="uSk_atrdt99H92I5iiGg-3" value="PeerFsm" style="rounded=0;whiteSpace=wrap;html=1;fillColor=#CC6600;" diagramCategory="general" diagramName="Rectangle" vertex="1" parent="1">
          <mxGeometry x="325" y="290" width="120" height="40" as="geometry" />
        </mxCell>
        <mxCell id="uSk_atrdt99H92I5iiGg-4" value="" style="rounded=0;whiteSpace=wrap;html=1;fillColor=none;dashed=1;" diagramCategory="general" diagramName="Rectangle" vertex="1" parent="1">
          <mxGeometry x="290" y="190" width="190" height="190" as="geometry" />
        </mxCell>
        <mxCell id="uSk_atrdt99H92I5iiGg-5" value="" style="endArrow=classic;html=1;" diagramCategory="general" diagramName="DirectionalConnector" edge="1" parent="1" target="uSk_atrdt99H92I5iiGg-4">
          <mxGeometry width="50" height="50" relative="1" as="geometry">
            <mxPoint x="387" y="110" as="sourcePoint" />
            <mxPoint x="405" y="60" as="targetPoint" />
          </mxGeometry>
        </mxCell>
        <mxCell id="uSk_atrdt99H92I5iiGg-6" value="write" style="text;html=1;strokeColor=none;fillColor=none;align=center;verticalAlign=middle;whiteSpace=wrap;rounded=0;dashed=1;" diagramCategory="general" diagramName="text" vertex="1" parent="1">
          <mxGeometry x="395" y="130" width="40" height="20" as="geometry" />
        </mxCell>
        <mxCell id="uSk_atrdt99H92I5iiGg-7" value="" style="rounded=1;whiteSpace=wrap;html=1;fillColor=none;dashed=1;strokeColor=none;" vertex="1" parent="1">
          <mxGeometry x="70" y="99" width="700" height="310" as="geometry" />
        </mxCell>
      </root>
    </mxGraphModel>
  </diagram>
</mxfile>
